<mxfile host="app.diagrams.net" agent="Mozilla/5.0 (X11; Linux x86_64) AppleWebKit/537.36 (KHTML, like Gecko) Chrome/126.0.0.0 YaBrowser/24.7.0.0 Safari/537.36" version="26.2.13">
  <diagram name="Страница — 1" id="vczGwuWksa9qAzsM2bff">
    <mxGraphModel dx="1500" dy="1010" grid="1" gridSize="10" guides="1" tooltips="1" connect="1" arrows="1" fold="1" page="1" pageScale="1" pageWidth="827" pageHeight="1169" math="0" shadow="0">
      <root>
        <mxCell id="0" />
        <mxCell id="1" parent="0" />
        <mxCell id="Q0dEOYpt1R8MO-l9zR0T-1" value="" style="ellipse;html=1;shape=startState;fillColor=#000000;strokeColor=#ff0000;" vertex="1" parent="1">
          <mxGeometry x="130" y="120" width="30" height="30" as="geometry" />
        </mxCell>
        <mxCell id="Q0dEOYpt1R8MO-l9zR0T-2" value="" style="edgeStyle=orthogonalEdgeStyle;html=1;verticalAlign=bottom;endArrow=open;endSize=8;strokeColor=#000000;rounded=0;" edge="1" source="Q0dEOYpt1R8MO-l9zR0T-1" parent="1">
          <mxGeometry relative="1" as="geometry">
            <mxPoint x="145" y="210" as="targetPoint" />
          </mxGeometry>
        </mxCell>
        <mxCell id="Q0dEOYpt1R8MO-l9zR0T-3" value="" style="ellipse;html=1;shape=endState;fillColor=#000000;strokeColor=#ff0000;" vertex="1" parent="1">
          <mxGeometry x="640" y="280" width="30" height="30" as="geometry" />
        </mxCell>
        <mxCell id="Q0dEOYpt1R8MO-l9zR0T-4" value="" style="rounded=1;whiteSpace=wrap;html=1;arcSize=38;" vertex="1" parent="1">
          <mxGeometry x="900" y="130" width="120" height="60" as="geometry" />
        </mxCell>
        <mxCell id="Q0dEOYpt1R8MO-l9zR0T-5" value="" style="rounded=1;whiteSpace=wrap;html=1;arcSize=38;" vertex="1" parent="1">
          <mxGeometry x="910" y="140" width="120" height="60" as="geometry" />
        </mxCell>
        <mxCell id="Q0dEOYpt1R8MO-l9zR0T-6" value="" style="rounded=1;whiteSpace=wrap;html=1;arcSize=38;" vertex="1" parent="1">
          <mxGeometry x="920" y="150" width="120" height="60" as="geometry" />
        </mxCell>
        <mxCell id="Q0dEOYpt1R8MO-l9zR0T-7" value="Выбор врача,&lt;div&gt;даты и времени&lt;/div&gt;" style="rounded=1;whiteSpace=wrap;html=1;arcSize=38;" vertex="1" parent="1">
          <mxGeometry x="210" y="420" width="120" height="60" as="geometry" />
        </mxCell>
        <mxCell id="Q0dEOYpt1R8MO-l9zR0T-8" value="" style="rounded=1;whiteSpace=wrap;html=1;arcSize=38;" vertex="1" parent="1">
          <mxGeometry x="930" y="160" width="120" height="60" as="geometry" />
        </mxCell>
        <mxCell id="Q0dEOYpt1R8MO-l9zR0T-9" value="" style="rounded=1;whiteSpace=wrap;html=1;arcSize=38;" vertex="1" parent="1">
          <mxGeometry x="940" y="170" width="120" height="60" as="geometry" />
        </mxCell>
        <mxCell id="Q0dEOYpt1R8MO-l9zR0T-10" value="" style="rounded=1;whiteSpace=wrap;html=1;arcSize=38;" vertex="1" parent="1">
          <mxGeometry x="950" y="180" width="120" height="60" as="geometry" />
        </mxCell>
      </root>
    </mxGraphModel>
  </diagram>
</mxfile>
